# xmcd
#
# Track frame offsets:
#	150
#	11684
#	25505
#	31925
#	45123
#	60159
#	72482
#	85405
#	99566
#	112662
#	122572
#	134303
#
# Disc length: 1954
#
# Revision: 2
# Processed by: cddbd v1.5.1PL0 Copyright (c) Steve Scherf et al.
# Submitted via: audiograbber 1.81.02
# Normalized: r1:DSETVAR1
#
DISCID=8607a00c
DTITLE=Various Artist - Christmas With Friends And Lovers
DYEAR=1900
DGENRE=
TTITLE0=Walter Schumann - Christmas Tree
TTITLE1=Kay Starr - December
TTITLE2=Al Jolson - White Christmas
TTITLE3=Chris Connor - Snowbird
TTITLE4=Herb Ohta - When A Child Is Born
TTITLE5=Judy Garland - Merry Christmas
TTITLE6=Rod McKuen - A Hand To Hold At Christmas
TTITLE7=Doris Day - The Christmas Song
TTITLE8=KJohnny Mercer - Winter Wonderland
TTITLE9=Frankie Laine - I Believe
TTITLE10=Dinah Shore - Happy Christmas, Little Friend
TTITLE11=Billy Eckstine - What Are You Doing, New Years Eve?
EXTD=
EXTT0=
EXTT1=
EXTT2=
EXTT3=
EXTT4=
EXTT5=
EXTT6=
EXTT7=
EXTT8=
EXTT9=
EXTT10=
EXTT11=
PLAYORDER=
